<?xml version="1.0" encoding="utf-8"?>
<!-- Generator: Adobe Illustrator 21.0.0, SVG Export Plug-In . SVG Version: 6.00 Build 0)  -->
<svg version="1.1" id="Capa_1" xmlns="http://www.w3.org/2000/svg" xmlns:xlink="http://www.w3.org/1999/xlink" x="0px" y="0px"
	 viewBox="0 0 841.9 595.3" style="enable-background:new 0 0 841.9 595.3;" xml:space="preserve">
<style type="text/css">
	.st0{fill:#808080;}
	.st1{fill:#0085AC;}
	.st2{fill:none;stroke:#000000;stroke-width:4.7247;stroke-miterlimit:10;}
</style>
<g>
	<g>
		<path class="st1" d="M95.4,481.5c-0.5,0.2-1.1,0.5-1.9,0.8c-0.8,0.3-1.7,0.7-2.6,1c-1,0.3-2.1,0.6-3.2,0.8
			c-1.2,0.2-2.4,0.3-3.6,0.3c-2.9,0-5.3-0.8-7.4-2.4c-2.1-1.6-3.1-4-3.1-7.4v-31.3h-6.3v-6.2h6.3v-15.5h7.9v15.5h10.4v6.2H81.4v28.9
			c0.1,1.7,0.7,3,1.7,3.7c1,0.8,2.2,1.2,3.6,1.2c1.5,0,3-0.3,4.2-0.8c1.3-0.5,2.2-0.9,2.6-1.2L95.4,481.5z"/>
		<path class="st1" d="M114.7,484.7c-2.2,0-4.3-0.4-6.2-1.1c-1.9-0.7-3.6-1.8-5-3.1c-1.4-1.3-2.5-2.8-3.3-4.6
			c-0.8-1.8-1.2-3.7-1.2-5.8c0-2.1,0.5-4.1,1.4-5.8c1-1.8,2.3-3.3,4.1-4.5c1.8-1.2,3.8-2.2,6.2-2.9c2.4-0.7,5-1.1,7.9-1.1
			c2.3,0,4.6,0.2,6.9,0.6c2.3,0.4,4.4,1,6.2,1.7v-3.7c0-3.8-1.1-6.8-3.2-9c-2.1-2.2-5.2-3.3-9.1-3.3c-4.7,0-9.6,1.8-14.8,5.4
			l-2.6-5.1c6-4,12-6.1,18.1-6.1c6.1,0,10.9,1.6,14.3,4.9c3.4,3.3,5.1,7.9,5.1,13.8v19c0,1.8,0.8,2.8,2.5,2.9v6.8
			c-0.8,0.1-1.5,0.2-2.1,0.3c-0.5,0.1-1.1,0.1-1.7,0.1c-1.5,0-2.8-0.5-3.7-1.4c-0.9-0.9-1.5-2-1.7-3.3l-0.2-3.3
			c-2.1,2.8-4.7,4.9-7.9,6.4C121.7,484,118.3,484.7,114.7,484.7z M116.7,478.8c2.8,0,5.4-0.5,7.8-1.6c2.4-1,4.2-2.4,5.5-4.1
			c1.1-1.1,1.7-2.3,1.7-3.5v-6.9c-3.8-1.5-7.8-2.2-11.9-2.2c-3.9,0-7.1,0.8-9.6,2.5c-2.5,1.7-3.7,3.8-3.7,6.5c0,1.3,0.3,2.5,0.8,3.7
			c0.5,1.1,1.2,2.1,2.1,2.9c0.9,0.8,2,1.5,3.3,2C114,478.6,115.3,478.8,116.7,478.8z"/>
		<path class="st1" d="M185,483.8l-16.1-22.8l-8.9,8.4v14.4h-7.9v-65.1h7.9v42.8l23.9-24.2h8.7L174,456.6l19.5,27.2H185z"/>
		<path class="st1" d="M218.5,484.7c-3.5,0-6.7-0.6-9.6-1.9c-2.9-1.3-5.4-3-7.5-5.2c-2.1-2.2-3.7-4.8-4.9-7.7s-1.7-6.1-1.7-9.3
			c0-3.3,0.6-6.4,1.7-9.3c1.2-2.9,2.8-5.5,4.9-7.7c2.1-2.2,4.6-3.9,7.5-5.2c2.9-1.3,6.1-1.9,9.6-1.9c3.5,0,6.7,0.7,9.6,2
			c2.9,1.3,5.3,3,7.4,5.2c2,2.2,3.6,4.7,4.7,7.6c1.1,2.9,1.7,5.9,1.7,9c0,0.7,0,1.2,0,1.8c0,0.5-0.1,1-0.1,1.2H203
			c0.2,2.3,0.7,4.4,1.6,6.3c0.9,1.9,2.1,3.5,3.5,4.9c1.4,1.4,3,2.4,4.9,3.2c1.8,0.8,3.7,1.2,5.8,1.2c1.4,0,2.8-0.2,4.2-0.6
			c1.4-0.4,2.6-0.9,3.8-1.6c1.2-0.7,2.2-1.5,3.2-2.4c0.9-1,1.6-2,2.1-3.2l6.8,1.9c-0.8,1.7-1.8,3.3-3.2,4.7
			c-1.3,1.4-2.9,2.7-4.6,3.7c-1.8,1-3.7,1.9-5.8,2.5C223,484.4,220.8,484.7,218.5,484.7z M234.4,457.4c-0.2-2.2-0.7-4.2-1.7-6.1
			c-0.9-1.9-2.1-3.5-3.5-4.8c-1.4-1.3-3-2.3-4.9-3.1c-1.8-0.7-3.8-1.1-5.9-1.1c-2.1,0-4,0.4-5.9,1.1c-1.8,0.7-3.5,1.8-4.9,3.1
			c-1.4,1.3-2.5,2.9-3.4,4.8c-0.9,1.8-1.4,3.9-1.6,6.1H234.4z"/>
		<path d="M274.2,481.5c-0.5,0.2-1.1,0.5-1.9,0.8c-0.8,0.3-1.7,0.7-2.6,1c-1,0.3-2.1,0.6-3.2,0.8c-1.2,0.2-2.4,0.3-3.6,0.3
			c-2.9,0-5.3-0.8-7.4-2.4c-2.1-1.6-3.1-4-3.1-7.4v-31.3H246v-6.2h6.3v-15.5h7.9v15.5h10.4v6.2h-10.4v28.9c0.1,1.7,0.7,3,1.7,3.7
			c1,0.8,2.2,1.2,3.6,1.2c1.5,0,3-0.3,4.2-0.8c1.3-0.5,2.2-0.9,2.6-1.2L274.2,481.5z"/>
		<path d="M322,483.8h-7.9v-26.1c0-4.8-0.8-8.4-2.5-10.8c-1.7-2.3-4.1-3.5-7.3-3.5c-1.5,0-3.1,0.3-4.6,0.9c-1.5,0.6-3,1.5-4.3,2.5
			c-1.3,1.1-2.5,2.4-3.6,3.8c-1,1.5-1.8,3.1-2.4,4.9v28.1h-7.9v-65.1h7.9v28.6c1.8-3.4,4.3-6,7.5-7.9c3.2-1.9,6.6-2.9,10.4-2.9
			c2.7,0,5.1,0.5,7,1.5c1.9,1,3.4,2.4,4.6,4.1c1.1,1.7,1.9,3.8,2.5,6.2c0.5,2.4,0.8,5,0.8,7.7V483.8z"/>
		<path d="M354.8,484.7c-3.5,0-6.7-0.6-9.6-1.9c-2.9-1.3-5.4-3-7.5-5.2c-2.1-2.2-3.7-4.8-4.9-7.7c-1.2-2.9-1.7-6.1-1.7-9.3
			c0-3.3,0.6-6.4,1.7-9.3c1.2-2.9,2.8-5.5,4.9-7.7c2.1-2.2,4.6-3.9,7.5-5.2c2.9-1.3,6.1-1.9,9.6-1.9c3.5,0,6.7,0.7,9.6,2
			c2.9,1.3,5.3,3,7.4,5.2c2,2.2,3.6,4.7,4.7,7.6c1.1,2.9,1.7,5.9,1.7,9c0,0.7,0,1.2,0,1.8c0,0.5-0.1,1-0.1,1.2h-38.6
			c0.2,2.3,0.7,4.4,1.6,6.3c0.9,1.9,2.1,3.5,3.5,4.9c1.4,1.4,3,2.4,4.9,3.2c1.8,0.8,3.7,1.2,5.8,1.2c1.4,0,2.8-0.2,4.2-0.6
			c1.4-0.4,2.6-0.9,3.8-1.6c1.2-0.7,2.2-1.5,3.2-2.4c0.9-1,1.6-2,2.1-3.2l6.8,1.9c-0.8,1.7-1.8,3.3-3.2,4.7
			c-1.3,1.4-2.9,2.7-4.6,3.7c-1.8,1-3.7,1.9-5.8,2.5C359.4,484.4,357.1,484.7,354.8,484.7z M370.8,457.4c-0.2-2.2-0.7-4.2-1.7-6.1
			c-0.9-1.9-2.1-3.5-3.5-4.8c-1.4-1.3-3-2.3-4.9-3.1c-1.8-0.7-3.8-1.1-5.9-1.1c-2.1,0-4,0.4-5.9,1.1c-1.8,0.7-3.5,1.8-4.9,3.1
			c-1.4,1.3-2.5,2.9-3.4,4.8c-0.9,1.8-1.4,3.9-1.6,6.1H370.8z"/>
		<path d="M381,500.4c-2.1,0-4-0.3-5.8-0.9c-1.8-0.6-3.4-1.5-4.9-2.9l3.7-5.3c0.8,0.8,1.8,1.3,2.9,1.6c1.1,0.3,2.2,0.4,3.3,0.4
			c1,0,1.9-0.2,2.8-0.6c0.9-0.4,1.7-0.9,2.4-1.6c0.7-0.7,1.3-1.5,1.7-2.4c0.4-1,0.6-2,0.6-3v-48.6h7.9v48.1c0,2.2-0.4,4.2-1.2,6.1
			c-0.8,1.8-1.9,3.4-3.2,4.8c-1.3,1.3-2.9,2.4-4.6,3.1C384.7,500.1,382.9,500.4,381,500.4z M387.6,428.5v-9.8h7.9v9.8H387.6z"/>
		<path d="M422.5,484.7c-4.9,0-8.6-1.6-11.1-4.9c-2.5-3.3-3.7-8.2-3.7-14.6v-27.9h7.9v26.4c0,9.5,3.3,14.3,9.9,14.3
			c3.2,0,6.2-1,9.1-3.1c2.8-2.1,4.9-4.9,6.3-8.4v-29.2h7.9v36.9c0,1.8,0.8,2.8,2.5,2.9v6.8c-0.9,0.1-1.6,0.2-2.1,0.2
			c-0.5,0-1,0-1.5,0c-1.5,0-2.8-0.5-3.9-1.4c-1-0.9-1.6-2.1-1.7-3.4l-0.2-5.4c-2.1,3.5-4.8,6.2-8.2,8.1
			C430.2,483.8,426.5,484.7,422.5,484.7z"/>
		<path d="M461.7,428.5v-9.8h7.9v9.8H461.7z M461.7,483.8v-46.6h7.9v46.6H461.7z"/>
		<path d="M479.1,460.4c0-3.3,0.6-6.4,1.7-9.3c1.1-2.9,2.7-5.5,4.8-7.6c2.1-2.2,4.6-3.9,7.5-5.2c2.9-1.3,6.1-1.9,9.7-1.9
			c4.6,0,8.6,1,12,3.1c3.4,2.1,5.9,4.8,7.6,8.3l-7.7,2.4c-1.2-2.2-2.9-3.9-5-5.1c-2.1-1.2-4.5-1.8-7.1-1.8c-2.1,0-4.2,0.4-6.1,1.3
			c-1.9,0.9-3.5,2.1-4.9,3.6c-1.4,1.5-2.5,3.4-3.3,5.4c-0.8,2.1-1.2,4.4-1.2,6.9c0,2.4,0.4,4.7,1.2,6.9c0.8,2.1,1.9,4,3.3,5.6
			c1.4,1.6,3,2.8,4.9,3.7c1.9,0.9,3.9,1.3,6,1.3c1.4,0,2.7-0.2,4.1-0.6c1.3-0.4,2.6-0.9,3.7-1.6c1.1-0.7,2.1-1.4,2.9-2.3
			c0.8-0.9,1.4-1.8,1.8-2.8l7.7,2.3c-0.7,1.7-1.7,3.3-3,4.7c-1.3,1.4-2.8,2.6-4.5,3.7c-1.7,1-3.6,1.8-5.8,2.4
			c-2.1,0.6-4.3,0.9-6.6,0.9c-3.5,0-6.7-0.7-9.6-2c-2.9-1.3-5.4-3.1-7.5-5.3c-2.1-2.2-3.7-4.8-4.9-7.7
			C479.7,466.8,479.1,463.7,479.1,460.4z"/>
		<path d="M551.9,484.7c-3.5,0-6.7-0.6-9.6-1.9c-2.9-1.3-5.4-3-7.5-5.2c-2.1-2.2-3.7-4.8-4.9-7.7s-1.7-6.1-1.7-9.3
			c0-3.3,0.6-6.4,1.7-9.3c1.2-2.9,2.8-5.5,4.9-7.7c2.1-2.2,4.6-3.9,7.5-5.2c2.9-1.3,6.1-1.9,9.6-1.9c3.5,0,6.7,0.7,9.6,2
			c2.9,1.3,5.3,3,7.4,5.2c2,2.2,3.6,4.7,4.7,7.6c1.1,2.9,1.7,5.9,1.7,9c0,0.7,0,1.2,0,1.8c0,0.5-0.1,1-0.1,1.2h-38.6
			c0.2,2.3,0.7,4.4,1.6,6.3c0.9,1.9,2.1,3.5,3.5,4.9c1.4,1.4,3,2.4,4.9,3.2c1.8,0.8,3.7,1.2,5.8,1.2c1.4,0,2.8-0.2,4.2-0.6
			c1.4-0.4,2.6-0.9,3.8-1.6c1.2-0.7,2.2-1.5,3.2-2.4c0.9-1,1.6-2,2.1-3.2l6.8,1.9c-0.8,1.7-1.8,3.3-3.2,4.7
			c-1.3,1.4-2.9,2.7-4.6,3.7c-1.8,1-3.7,1.9-5.8,2.5C556.4,484.4,554.2,484.7,551.9,484.7z M567.8,457.4c-0.2-2.2-0.7-4.2-1.7-6.1
			c-0.9-1.9-2.1-3.5-3.5-4.8c-1.4-1.3-3-2.3-4.9-3.1c-1.8-0.7-3.8-1.1-5.9-1.1c-2.1,0-4,0.4-5.9,1.1c-1.8,0.7-3.5,1.8-4.9,3.1
			c-1.4,1.3-2.5,2.9-3.4,4.8c-0.9,1.8-1.4,3.9-1.6,6.1H567.8z"/>
		<path d="M583.4,483.8v-10h6.6v10H583.4z"/>
		<path d="M598.9,460.4c0-3.3,0.6-6.4,1.7-9.3c1.1-2.9,2.7-5.5,4.8-7.6c2.1-2.2,4.6-3.9,7.5-5.2c2.9-1.3,6.1-1.9,9.7-1.9
			c4.6,0,8.6,1,12,3.1c3.4,2.1,5.9,4.8,7.6,8.3l-7.7,2.4c-1.2-2.2-2.9-3.9-5-5.1c-2.1-1.2-4.5-1.8-7.1-1.8c-2.1,0-4.2,0.4-6.1,1.3
			c-1.9,0.9-3.5,2.1-4.9,3.6c-1.4,1.5-2.5,3.4-3.3,5.4c-0.8,2.1-1.2,4.4-1.2,6.9c0,2.4,0.4,4.7,1.3,6.9c0.8,2.1,1.9,4,3.3,5.6
			c1.4,1.6,3,2.8,4.9,3.7c1.9,0.9,3.9,1.3,6,1.3c1.4,0,2.7-0.2,4.1-0.6c1.3-0.4,2.6-0.9,3.7-1.6c1.1-0.7,2.1-1.4,2.9-2.3
			c0.8-0.9,1.4-1.8,1.8-2.8l7.7,2.3c-0.7,1.7-1.7,3.3-3,4.7c-1.3,1.4-2.8,2.6-4.5,3.7c-1.7,1-3.6,1.8-5.8,2.4
			c-2.1,0.6-4.3,0.9-6.6,0.9c-3.5,0-6.7-0.7-9.6-2c-2.9-1.3-5.4-3.1-7.5-5.3c-2.1-2.2-3.7-4.8-4.9-7.7
			C599.5,466.8,598.9,463.7,598.9,460.4z"/>
		<path d="M671.3,484.7c-3.5,0-6.7-0.7-9.6-2c-2.9-1.3-5.4-3.1-7.4-5.3c-2.1-2.2-3.6-4.8-4.8-7.7c-1.1-2.9-1.7-6-1.7-9.2
			c0-3.3,0.6-6.4,1.7-9.3c1.2-2.9,2.8-5.5,4.8-7.7c2.1-2.2,4.5-4,7.4-5.3c2.9-1.3,6.1-2,9.5-2c3.4,0,6.6,0.7,9.5,2
			c2.9,1.3,5.4,3.1,7.5,5.3c2.1,2.2,3.7,4.8,4.8,7.7c1.2,2.9,1.7,6,1.7,9.3c0,3.2-0.6,6.3-1.7,9.2c-1.1,2.9-2.7,5.5-4.8,7.7
			c-2.1,2.2-4.6,4-7.5,5.3C678,484.1,674.9,484.7,671.3,484.7z M655.9,460.7c0,2.4,0.4,4.7,1.2,6.8c0.8,2.1,1.9,3.9,3.3,5.4
			c1.4,1.5,3,2.8,4.9,3.7c1.9,0.9,3.9,1.3,6,1.3c2.1,0,4.1-0.4,6-1.3c1.9-0.9,3.5-2.1,5-3.7c1.4-1.6,2.5-3.4,3.3-5.5
			c0.8-2.1,1.2-4.4,1.2-6.8c0-2.4-0.4-4.6-1.2-6.7c-0.8-2.1-1.9-4-3.3-5.5c-1.4-1.6-3.1-2.8-5-3.7c-1.9-0.9-3.9-1.3-6-1.3
			c-2.1,0-4.2,0.5-6,1.4c-1.9,0.9-3.5,2.2-4.9,3.7c-1.4,1.6-2.5,3.4-3.3,5.5C656.3,456,655.9,458.3,655.9,460.7z"/>
		<path d="M774.7,483.8h-7.9v-26.1c0-4.9-0.8-8.5-2.4-10.8c-1.6-2.3-3.9-3.5-7-3.5c-3.2,0-6.1,1.1-8.6,3.4c-2.5,2.3-4.3,5.3-5.4,8.9
			v28h-7.9v-26.1c0-5-0.8-8.6-2.3-10.9c-1.5-2.3-3.9-3.4-7-3.4c-3.2,0-6,1.1-8.6,3.3c-2.6,2.2-4.4,5.2-5.4,8.9v28.1h-7.9v-46.6h7.1
			v10c1.9-3.5,4.4-6.1,7.4-8c3-1.9,6.5-2.8,10.3-2.8c3.9,0,7,1.1,9.3,3.2c2.3,2.1,3.7,4.8,4.2,8.2c4.2-7.6,10.1-11.3,17.8-11.3
			c2.7,0,4.9,0.5,6.7,1.5c1.8,1,3.3,2.4,4.3,4.1c1.1,1.8,1.8,3.8,2.3,6.2c0.5,2.4,0.7,5,0.7,7.8V483.8z"/>
	</g>
	<g>
		<polygon class="st1" points="536.2,180.2 536.2,173.7 535.5,173.7 		"/>
		<path class="st1" d="M480.7,186.3c-18.9-15.4-49.9-12.2-56.6-11.3v154.3h102.3l9.8-6.3V195.9C529.1,197.2,499.3,201.5,480.7,186.3
			z"/>
	</g>
	<g>
		<polygon class="st1" points="416.7,329.1 319.2,329.9 304.6,323 304.6,136.2 416.7,136.2 		"/>
	</g>
	<path d="M535.3,154.8v157.6c0,6.8-5.5,12.3-12.3,12.3h-85.9c-4.5,0-8.8,1.6-12.3,4.3V148.8c0-6.8,5.5-12.3,12.3-12.3h80.4v-8.2
		h-80.4c-6.7,0-12.6,3.3-16.4,8.3c-3.7-5-9.6-8.3-16.4-8.3h-85.9c-11.3,0-20.5,9.2-20.5,20.5v163.6c0,11.3,9.2,20.5,20.5,20.5h85.9
		c6.9,0,12.3,6.6,12.3,12.3c0,2.3,1.8,4.1,4.1,4.1s4.1-1.8,4.1-4.1c0-5.7,5.4-12.3,12.3-12.3h85.9c11.3,0,20.5-9.2,20.5-20.5V154.8
		H535.3z M416.7,329.1c-3.5-2.7-7.8-4.3-12.3-4.3h-85.9c-6.8,0-12.3-5.5-12.3-12.3V148.8c0-6.8,5.5-12.3,12.3-12.3h85.9
		c6.8,0,12.3,5.5,12.3,12.3V329.1z"/>
	<g>
		<polygon points="490,188.6 483.7,182.2 571,94.9 614.4,94.9 614.4,103.8 574.7,103.8 		"/>
	</g>
	<g>
		<path class="st1" d="M489.4,162.6c0,3.5-6.4,10.8-6.4,10.8s-6.4-7.3-6.4-10.8s2.9-6.4,6.4-6.4S489.4,159.1,489.4,162.6z"/>
	</g>
	<g>
		<path class="st1" d="M504,193.9c-2.3,0-7.1-4.2-7.1-4.2s4.8-4.2,7.1-4.2c2.3,0,4.2,1.9,4.2,4.2S506.3,193.9,504,193.9z"/>
	</g>
	<g>
		<path class="st1" d="M526.6,183.8c-3.8,1.4-14.1-2.8-14.1-2.8s5.4-9.7,9.2-11.1c3.8-1.4,8,0.6,9.4,4.5
			C532.4,178.3,530.4,182.5,526.6,183.8z"/>
	</g>
</g>
</svg>
