<?xml version="1.0" encoding="utf-8"?>
<!-- Generator: Adobe Illustrator 21.0.0, SVG Export Plug-In . SVG Version: 6.00 Build 0)  -->
<svg version="1.1"
	 id="Capa_1" xmlns:cc="http://creativecommons.org/ns#" xmlns:dc="http://purl.org/dc/elements/1.1/" xmlns:inkscape="http://www.inkscape.org/namespaces/inkscape" xmlns:rdf="http://www.w3.org/1999/02/22-rdf-syntax-ns#" xmlns:sodipodi="http://sodipodi.sourceforge.net/DTD/sodipodi-0.dtd" xmlns:svg="http://www.w3.org/2000/svg"
	 xmlns="http://www.w3.org/2000/svg" xmlns:xlink="http://www.w3.org/1999/xlink" x="0px" y="0px" viewBox="0 0 73 122.3"
	 style="enable-background:new 0 0 73 122.3;" xml:space="preserve">
<path d="M46.5,0c-5.8,0-10.7,4.4-11.4,10C20.2,10.8,8.2,22.8,7.5,37.7c-0.1,0-0.1,0.1-0.2,0.1L2.8,43C1,45.1,0,47.8,0,50.5v35.2
	c0,7.7,2.4,14.8,6.4,20.7c0.1,0.1,0.1,0.2,0.2,0.3c6.6,9.4,17.5,15.6,29.9,15.6c12.3,0,23.3-6.2,29.9-15.6c0.1-0.1,0.1-0.2,0.2-0.3
	c4.1-5.9,6.4-13,6.4-20.7V50.6c0-2.8-1-5.4-2.8-7.5l-4.7-5.3l-0.1-0.1c-0.7-14.8-12.5-26.8-27.3-27.6c0.7-4,4.2-7.1,8.4-7.1
	C47.3,3,48,2.3,48,1.5S47.3,0,46.5,0z M36.5,13.1c14.3,0,26,11.6,26,25.9c0,2.5-0.4,5-1.1,7.4L36.5,60L11.6,46.5
	c-0.7-2.4-1.1-4.9-1.1-7.4C10.5,24.8,22.2,13.1,36.5,13.1z M24,34.5c-1.4,0-2.5,1.1-2.5,2.5s1.1,2.5,2.5,2.5s2.5-1.1,2.5-2.5
	S25.4,34.5,24,34.5z M48.5,34.5c-1.4,0-2.5,1.1-2.5,2.5s1.1,2.5,2.5,2.5S51,38.4,51,37S49.9,34.5,48.5,34.5z M65.4,42l1.3,1.6
	L65,44.5C65.2,43.7,65.3,42.9,65.4,42z M7.7,42.1c0.1,0.8,0.2,1.6,0.4,2.5l-1.7-0.9L7.7,42.1z M36.5,44.5c-3.6,0-6.5,3-6.5,6.5
	c0,3.6,2.9,6.5,6.5,6.5S43,54.6,43,51S40.1,44.5,36.5,44.5z M4.4,46l29,15.7L3,78.1V50.6C3,49,3.5,47.3,4.4,46z M68.6,46.1
	c0.9,1.4,1.4,3,1.4,4.7v35.1c0,6.8-2,13.1-5.5,18.4h-56C5,99,3,92.7,3,85.9v-4.3L68.6,46.1z M36.5,47.5c1.9,0,3.5,1.6,3.5,3.5
	s-1.6,3.5-3.5,3.5S33,52.9,33,51S34.6,47.5,36.5,47.5z M35.5,49.5c-0.8,0-1.5,0.7-1.5,1.5s0.7,1.5,1.5,1.5h2c0.8,0,1.5-0.7,1.5-1.5
	s-0.7-1.5-1.5-1.5H35.5z M10.8,107.3h51.4c-6.1,7.4-15.4,12.1-25.7,12.1S16.9,114.7,10.8,107.3z"/>
</svg>
