<?xml version="1.0" encoding="utf-8"?>
<!-- Generator: Adobe Illustrator 21.0.0, SVG Export Plug-In . SVG Version: 6.00 Build 0)  -->
<svg version="1.1" id="Capa_1" xmlns="http://www.w3.org/2000/svg" xmlns:xlink="http://www.w3.org/1999/xlink" x="0px" y="0px"
	 viewBox="0 0 75.2 91.2" style="enable-background:new 0 0 75.2 91.2;" xml:space="preserve">
<path d="M71.9,81.1h-0.7v-0.2c0-2.4-2-4.4-4.4-4.4h-2.2l3-41.7c0.7-9.5-2.5-18.7-8.7-25.4C53.3,3.3,45.7,0,37.6,0S21.9,3.3,16.3,9.4
	c-6.2,6.7-9.4,15.9-8.7,25.4l3,41.7H8.4c-2.4,0-4.4,2-4.4,4.4v0.2H3.3c-1.8,0-3.3,1.5-3.3,3.3v6.8h75.2v-6.8
	C75.2,82.6,73.7,81.1,71.9,81.1z M18.6,11.6c5-5.4,11.8-8.4,19-8.4s13.9,3,19,8.4c5.6,6,8.5,14.4,7.9,23l-2.1,29.8H49.8
	c-0.9,0-1.6,0.7-1.6,1.6c0,0.9,0.7,1.6,1.6,1.6h12.2l-0.6,9H13.8l-1.2-17.1h20c0.9,0,1.6-0.7,1.6-1.6c0-0.9-0.7-1.6-1.6-1.6H12.3
	l-1.5-21.7C10.1,26,13,17.6,18.6,11.6z M7.2,80.9c0-0.7,0.5-1.2,1.2-1.2h58.4c0.7,0,1.2,0.5,1.2,1.2v0.2H7.2
	C7.2,81.1,7.2,80.9,7.2,80.9z M72,88H3.2v-3.6c0,0,0-0.1,0.1-0.1h68.7c0,0,0.1,0,0.1,0.1L72,88L72,88z"/>
</svg>
