<?xml version="1.0" encoding="utf-8"?>
<!-- Generator: Adobe Illustrator 21.0.0, SVG Export Plug-In . SVG Version: 6.00 Build 0)  -->
<svg version="1.1" id="Capa_1" xmlns="http://www.w3.org/2000/svg" xmlns:xlink="http://www.w3.org/1999/xlink" x="0px" y="0px"
	 viewBox="0 0 456.7 122" style="enable-background:new 0 0 456.7 122;" xml:space="preserve">
<style type="text/css">
	.st0{fill:#FFFFFF;stroke:#1D1D1B;stroke-width:0.8951;stroke-miterlimit:10;}
	.st1{fill:#0085AC;}
	.st2{fill:#FFFFFF;stroke:#0085AC;stroke-width:1.9234;stroke-miterlimit:10;}
	.st3{fill:none;stroke:#0085AC;stroke-miterlimit:10;}
	.st4{fill:#808080;}
	.st5{fill:none;stroke:#000000;stroke-width:8;stroke-miterlimit:10;}
	.st6{fill:none;stroke:#000000;stroke-width:4.7247;stroke-miterlimit:10;}
	.st7{fill:#FFFFFF;}
	.st8{fill:#9D9D9C;}
	.st9{fill:#878787;}
</style>
<g>
	<g>
		<path class="st1" d="M178,84.7c-1,0.5-2.3,1-4.1,1.6s-3.6,0.9-5.5,0.9c-1.2,0-2.4-0.2-3.4-0.5c-1.1-0.3-2-0.8-2.8-1.5
			c-0.8-0.7-1.5-1.5-1.9-2.6c-0.5-1-0.7-2.3-0.7-3.8V56h-4.8v-6h4.8V38h7.7v12h8v6h-8v20.4c0.1,1.3,0.5,2.3,1.2,2.8
			c0.7,0.6,1.6,0.9,2.7,0.9c1.1,0,2.1-0.2,3.1-0.6c1-0.4,1.7-0.7,2.2-0.9L178,84.7z"/>
		<path class="st1" d="M216.2,86.6h-7.7V66.1c0-3.4-0.6-5.8-1.8-7.5c-1.2-1.6-2.9-2.4-5.1-2.4c-1.1,0-2.1,0.2-3.2,0.6s-2.1,1-3,1.8
			c-1,0.8-1.8,1.7-2.6,2.7c-0.7,1.1-1.3,2.2-1.7,3.5v21.8h-7.7V35.5h7.7v21.8c1.4-2.5,3.3-4.5,5.7-5.9c2.4-1.4,5-2.1,7.9-2.1
			c2.3,0,4.2,0.4,5.6,1.2s2.6,1.9,3.5,3.3c0.9,1.4,1.5,2.9,1.9,4.7c0.4,1.8,0.5,3.7,0.5,5.7V86.6z"/>
		<path class="st1" d="M241.7,87.3c-2.8,0-5.4-0.5-7.8-1.5c-2.3-1-4.3-2.4-6-4.1c-1.7-1.7-2.9-3.7-3.8-6c-0.9-2.3-1.4-4.7-1.4-7.3
			c0-2.6,0.5-5,1.4-7.3c0.9-2.3,2.2-4.3,3.8-6.1c1.7-1.8,3.7-3.1,6-4.1c2.3-1,4.9-1.5,7.8-1.5c2.8,0,5.4,0.5,7.7,1.5
			c2.3,1,4.3,2.4,5.9,4.1c1.6,1.7,2.9,3.7,3.7,6c0.9,2.3,1.3,4.6,1.3,7.1c0,0.6,0,1.1-0.1,1.6c0,0.5-0.1,0.9-0.1,1.2H231
			c0.1,1.6,0.5,3.1,1.2,4.4c0.6,1.3,1.4,2.4,2.5,3.4c1,1,2.1,1.7,3.4,2.2c1.3,0.5,2.6,0.8,4,0.8c1,0,2-0.1,3-0.4
			c1-0.3,1.9-0.6,2.8-1.1c0.8-0.5,1.6-1.1,2.2-1.8c0.7-0.7,1.2-1.5,1.5-2.3l6.6,1.9c-1.3,2.8-3.3,5-6.3,6.8
			C249,86.4,245.6,87.3,241.7,87.3z M252.9,65.5c-0.1-1.5-0.5-3-1.2-4.3c-0.6-1.3-1.4-2.4-2.4-3.3c-1-0.9-2.1-1.6-3.4-2.1
			c-1.3-0.5-2.7-0.8-4.1-0.8c-1.4,0-2.8,0.3-4.1,0.8c-1.3,0.5-2.4,1.2-3.4,2.1c-1,0.9-1.8,2-2.4,3.3c-0.6,1.3-1,2.7-1.1,4.3H252.9z"
			/>
		<path d="M262.9,100c-1.7,0-3.3-0.3-4.8-0.8c-1.5-0.5-2.8-1.3-4.1-2.4l3.4-5.2c0.6,0.6,1.3,1,2.1,1.2c0.8,0.3,1.6,0.4,2.4,0.4
			c1.4,0,2.6-0.5,3.6-1.5s1.6-2.3,1.6-3.8V50h7.7v37.4c0,1.9-0.3,3.6-0.9,5.1s-1.5,2.9-2.6,4c-1.1,1.1-2.4,2-3.8,2.6
			C266.1,99.7,264.6,100,262.9,100z M267.2,44v-8.5h7.7V44H267.2z"/>
		<path d="M295.4,87.3c-3.8,0-6.7-1.2-8.7-3.7c-2-2.5-2.9-6.2-2.9-11.2V50h7.7v20.9c0,6.6,2.3,9.9,7,9.9c2.2,0,4.3-0.7,6.2-2
			c2-1.4,3.5-3.3,4.5-5.9V50h7.7v27.5c0,0.9,0.2,1.5,0.5,1.9c0.3,0.4,0.9,0.6,1.6,0.6v6.6c-0.8,0.1-1.4,0.2-2,0.3
			c-0.5,0-1,0.1-1.5,0.1c-1.4,0-2.6-0.4-3.6-1.2c-1-0.8-1.5-1.8-1.5-3l-0.1-3.6c-1.6,2.7-3.8,4.7-6.4,6.1
			C301.4,86.6,298.6,87.3,295.4,87.3z"/>
		<path d="M326.8,44v-8.5h7.7V44H326.8z M326.8,86.6V50h7.7v36.6H326.8z"/>
		<path d="M341.3,68.3c0-2.6,0.4-5,1.3-7.3c0.9-2.3,2.2-4.3,3.8-6c1.7-1.7,3.7-3.1,6-4.1c2.3-1,4.9-1.5,7.8-1.5c3.8,0,7,0.8,9.8,2.5
			c2.7,1.7,4.8,3.9,6.1,6.6l-7.5,2.4c-0.9-1.5-2.1-2.7-3.6-3.6c-1.5-0.9-3.2-1.3-5-1.3c-1.5,0-3,0.3-4.3,0.9
			c-1.3,0.6-2.5,1.5-3.5,2.6c-1,1.1-1.8,2.4-2.3,3.9c-0.6,1.5-0.8,3.1-0.8,5c0,1.8,0.3,3.4,0.9,4.9c0.6,1.5,1.4,2.8,2.4,4
			c1,1.1,2.2,2,3.5,2.6s2.7,0.9,4.2,0.9c0.9,0,1.9-0.1,2.8-0.4c0.9-0.3,1.8-0.6,2.6-1.1c0.8-0.5,1.4-1,2-1.6c0.6-0.6,1-1.3,1.3-2
			l7.6,2.2c-1.2,2.8-3.2,5-6.1,6.8c-2.8,1.8-6.2,2.6-10.1,2.6c-2.8,0-5.4-0.5-7.8-1.5c-2.3-1-4.3-2.4-6-4.2
			c-1.7-1.8-2.9-3.8-3.8-6.1C341.8,73.3,341.3,70.8,341.3,68.3z"/>
		<path d="M399.1,87.3c-2.8,0-5.4-0.5-7.8-1.5c-2.3-1-4.3-2.4-6-4.1c-1.7-1.7-2.9-3.7-3.8-6c-0.9-2.3-1.4-4.7-1.4-7.3
			c0-2.6,0.5-5,1.4-7.3c0.9-2.3,2.2-4.3,3.8-6.1c1.7-1.8,3.7-3.1,6-4.1c2.3-1,4.9-1.5,7.8-1.5c2.8,0,5.4,0.5,7.7,1.5
			c2.3,1,4.3,2.4,5.9,4.1c1.6,1.7,2.9,3.7,3.7,6c0.9,2.3,1.3,4.6,1.3,7.1c0,0.6,0,1.1-0.1,1.6c0,0.5-0.1,0.9-0.1,1.2h-29.3
			c0.1,1.6,0.5,3.1,1.2,4.4c0.6,1.3,1.4,2.4,2.5,3.4c1,1,2.1,1.7,3.4,2.2c1.3,0.5,2.6,0.8,4,0.8c1,0,2-0.1,3-0.4
			c1-0.3,1.9-0.6,2.8-1.1c0.8-0.5,1.6-1.1,2.2-1.8c0.7-0.7,1.2-1.5,1.5-2.3l6.6,1.9c-1.3,2.8-3.3,5-6.3,6.8
			C406.4,86.4,403,87.3,399.1,87.3z M410.2,65.5c-0.1-1.5-0.5-3-1.2-4.3c-0.6-1.3-1.4-2.4-2.4-3.3c-1-0.9-2.1-1.6-3.4-2.1
			c-1.3-0.5-2.7-0.8-4.1-0.8c-1.4,0-2.8,0.3-4.1,0.8c-1.3,0.5-2.4,1.2-3.4,2.1c-1,0.9-1.8,2-2.4,3.3c-0.6,1.3-1,2.7-1.1,4.3H410.2z"
			/>
	</g>
	<g>
		<polygon class="st1" points="113,45.9 113,43.9 112.8,43.9 		"/>
		<g>
			<path class="st1" d="M94.6,49.2c-3.4-2.8-8.5-3.4-12.1-3.4c-0.8,0-1.6,0-2.4,0.1v43.5c0.7-0.2,1.4-0.3,2.1-0.3h26.7
				c1.1,0,2.1-0.9,2.1-2.1V52.8c-1.2,0.1-2.4,0.2-3.5,0.2C103.7,53,98.5,52.4,94.6,49.2z"/>
			<path class="st1" d="M71.9,34.1H45.2c-1.1,0-2.1,0.9-2.1,2.1v50.9c0,1.1,0.9,2.1,2.1,2.1h26.7c0.7,0,1.4,0.1,2.1,0.3V36.1
				C74,35,73.1,34.1,71.9,34.1z"/>
		</g>
		<path d="M112.7,38v12.8v36.3c0,2.1-1.7,3.8-3.8,3.8H82.1c-1.4,0-2.7,0.5-3.8,1.4v-48v-8.1c0-2.1,1.7-3.8,3.8-3.8h25v-2.5h-25
			c-2.1,0-3.9,1-5.1,2.6c-1.2-1.6-3-2.6-5.1-2.6H45.2c-3.5,0-6.4,2.9-6.4,6.4v50.9c0,3.5,2.9,6.4,6.4,6.4h26.7
			c2.2,0,3.8,2.1,3.8,3.8c0,0.7,0.6,1.3,1.3,1.3c0.7,0,1.3-0.6,1.3-1.3c0-1.8,1.7-3.8,3.8-3.8h26.7c3.5,0,6.4-2.9,6.4-6.4V38H112.7z
			 M75.8,92.2c-1.1-0.8-2.4-1.4-3.8-1.4H45.2c-2.1,0-3.8-1.7-3.8-3.8V36.1c0-2.1,1.7-3.8,3.8-3.8h26.7c2.1,0,3.8,1.7,3.8,3.8V92.2z"
			/>
		<polygon points="98.6,48.5 96.6,46.5 123.8,19.3 137.3,19.3 137.3,22.1 125,22.1 		"/>
		<path class="st1" d="M98.4,40.4c0,1.1-2,3.4-2,3.4s-2-2.3-2-3.4c0-1.1,0.9-2,2-2S98.4,39.3,98.4,40.4z"/>
		<path class="st1" d="M102.9,50.1c-0.7,0-2.2-1.3-2.2-1.3s1.5-1.3,2.2-1.3c0.7,0,1.3,0.6,1.3,1.3C104.2,49.6,103.7,50.1,102.9,50.1
			z"/>
		<path class="st1" d="M110,47c-1.2,0.4-4.4-0.9-4.4-0.9s1.7-3,2.9-3.4s2.5,0.2,2.9,1.4C111.8,45.3,111.2,46.6,110,47z"/>
	</g>
</g>
</svg>
