<?xml version="1.0" encoding="utf-8"?>
<!-- Generator: Adobe Illustrator 21.0.0, SVG Export Plug-In . SVG Version: 6.00 Build 0)  -->
<svg version="1.1" id="Capa_1" xmlns="http://www.w3.org/2000/svg" xmlns:xlink="http://www.w3.org/1999/xlink" x="0px" y="0px"
	 viewBox="0 0 378.9 80.7" style="enable-background:new 0 0 378.9 80.7;" xml:space="preserve">
<style type="text/css">
	.st0{fill:#FFFFFF;stroke:#1D1D1B;stroke-width:0.8951;stroke-miterlimit:10;}
	.st1{fill:#0085AC;}
	.st2{fill:#FFFFFF;stroke:#0085AC;stroke-width:1.9234;stroke-miterlimit:10;}
	.st3{fill:none;stroke:#0085AC;stroke-miterlimit:10;}
	.st4{fill:#808080;}
	.st5{fill:none;stroke:#000000;stroke-width:8;stroke-miterlimit:10;}
	.st6{fill:none;stroke:#000000;stroke-width:4.7247;stroke-miterlimit:10;}
	.st7{fill:#FFFFFF;}
	.st8{fill:#9D9D9C;}
	.st9{fill:#878787;}
</style>
<g>
	<g>
		<path class="st1" d="M139.2,65.4c-1,0.5-2.3,1-4.1,1.6c-1.8,0.6-3.6,0.9-5.5,0.9c-1.2,0-2.4-0.2-3.4-0.5c-1.1-0.3-2-0.8-2.8-1.5
			c-0.8-0.7-1.5-1.5-1.9-2.6c-0.5-1-0.7-2.3-0.7-3.8V36.7H116v-6h4.8v-12h7.7v12h8v6h-8v20.4c0.1,1.3,0.5,2.3,1.2,2.8
			c0.7,0.6,1.6,0.9,2.7,0.9c1.1,0,2.1-0.2,3.1-0.6s1.7-0.7,2.2-0.9L139.2,65.4z"/>
		<path class="st1" d="M177.4,67.3h-7.7V46.8c0-3.4-0.6-5.8-1.8-7.5c-1.2-1.6-2.9-2.4-5.1-2.4c-1.1,0-2.1,0.2-3.2,0.6s-2.1,1-3,1.8
			c-1,0.8-1.8,1.7-2.6,2.7c-0.7,1.1-1.3,2.2-1.7,3.5v21.8h-7.7V16.2h7.7V38c1.4-2.5,3.3-4.5,5.7-5.9s5-2.1,7.9-2.1
			c2.3,0,4.2,0.4,5.6,1.2s2.6,1.9,3.5,3.3c0.9,1.4,1.5,2.9,1.9,4.7s0.5,3.7,0.5,5.7L177.4,67.3L177.4,67.3z"/>
		<path class="st1" d="M202.9,68c-2.8,0-5.4-0.5-7.8-1.5c-2.3-1-4.3-2.4-6-4.1c-1.7-1.7-2.9-3.7-3.8-6c-0.9-2.3-1.4-4.7-1.4-7.3
			c0-2.6,0.5-5,1.4-7.3s2.2-4.3,3.8-6.1c1.7-1.8,3.7-3.1,6-4.1s4.9-1.5,7.8-1.5c2.8,0,5.4,0.5,7.7,1.5s4.3,2.4,5.9,4.1
			c1.6,1.7,2.9,3.7,3.7,6c0.9,2.3,1.3,4.6,1.3,7.1c0,0.6,0,1.1-0.1,1.6c0,0.5-0.1,0.9-0.1,1.2h-29.1c0.1,1.6,0.5,3.1,1.2,4.4
			c0.6,1.3,1.4,2.4,2.5,3.4c1,1,2.1,1.7,3.4,2.2c1.3,0.5,2.6,0.8,4,0.8c1,0,2-0.1,3-0.4s1.9-0.6,2.8-1.1c0.8-0.5,1.6-1.1,2.2-1.8
			c0.7-0.7,1.2-1.5,1.5-2.3l6.6,1.9c-1.3,2.8-3.3,5-6.3,6.8C210.2,67.1,206.8,68,202.9,68z M214.1,46.2c-0.1-1.5-0.5-3-1.2-4.3
			c-0.6-1.3-1.4-2.4-2.4-3.3c-1-0.9-2.1-1.6-3.4-2.1c-1.3-0.5-2.7-0.8-4.1-0.8c-1.4,0-2.8,0.3-4.1,0.8s-2.4,1.2-3.4,2.1
			c-1,0.9-1.8,2-2.4,3.3c-0.6,1.3-1,2.7-1.1,4.3H214.1z"/>
		<path d="M224.1,80.7c-1.7,0-3.3-0.3-4.8-0.8s-2.8-1.3-4.1-2.4l3.4-5.2c0.6,0.6,1.3,1,2.1,1.2c0.8,0.3,1.6,0.4,2.4,0.4
			c1.4,0,2.6-0.5,3.6-1.5s1.6-2.3,1.6-3.8V30.7h7.7v37.4c0,1.9-0.3,3.6-0.9,5.1s-1.5,2.9-2.6,4c-1.1,1.1-2.4,2-3.8,2.6
			C227.3,80.4,225.8,80.7,224.1,80.7z M228.4,24.7v-8.5h7.7v8.5H228.4z"/>
		<path d="M256.6,68c-3.8,0-6.7-1.2-8.7-3.7c-2-2.5-2.9-6.2-2.9-11.2V30.7h7.7v20.9c0,6.6,2.3,9.9,7,9.9c2.2,0,4.3-0.7,6.2-2
			c2-1.4,3.5-3.3,4.5-5.9V30.7h7.7v27.5c0,0.9,0.2,1.5,0.5,1.9s0.9,0.6,1.6,0.6v6.6c-0.8,0.1-1.4,0.2-2,0.3c-0.5,0-1,0.1-1.5,0.1
			c-1.4,0-2.6-0.4-3.6-1.2c-1-0.8-1.5-1.8-1.5-3l-0.1-3.6c-1.6,2.7-3.8,4.7-6.4,6.1C262.6,67.3,259.8,68,256.6,68z"/>
		<path d="M288,24.7v-8.5h7.7v8.5H288z M288,67.3V30.7h7.7v36.6H288z"/>
		<path d="M302.5,49c0-2.6,0.4-5,1.3-7.3s2.2-4.3,3.8-6c1.7-1.7,3.7-3.1,6-4.1s4.9-1.5,7.8-1.5c3.8,0,7,0.8,9.8,2.5
			c2.7,1.7,4.8,3.9,6.1,6.6l-7.5,2.4c-0.9-1.5-2.1-2.7-3.6-3.6c-1.5-0.9-3.2-1.3-5-1.3c-1.5,0-3,0.3-4.3,0.9
			c-1.3,0.6-2.5,1.5-3.5,2.6s-1.8,2.4-2.3,3.9c-0.6,1.5-0.8,3.1-0.8,5c0,1.8,0.3,3.4,0.9,4.9s1.4,2.8,2.4,4c1,1.1,2.2,2,3.5,2.6
			s2.7,0.9,4.2,0.9c0.9,0,1.9-0.1,2.8-0.4s1.8-0.6,2.6-1.1c0.8-0.5,1.4-1,2-1.6s1-1.3,1.3-2l7.6,2.2c-1.2,2.8-3.2,5-6.1,6.8
			c-2.8,1.8-6.2,2.6-10.1,2.6c-2.8,0-5.4-0.5-7.8-1.5c-2.3-1-4.3-2.4-6-4.2c-1.7-1.8-2.9-3.8-3.8-6.1C303,54,302.5,51.5,302.5,49z"
			/>
		<path d="M360.3,68c-2.8,0-5.4-0.5-7.8-1.5c-2.3-1-4.3-2.4-6-4.1c-1.7-1.7-2.9-3.7-3.8-6s-1.4-4.7-1.4-7.3c0-2.6,0.5-5,1.4-7.3
			s2.2-4.3,3.8-6.1c1.7-1.8,3.7-3.1,6-4.1s4.9-1.5,7.8-1.5c2.8,0,5.4,0.5,7.7,1.5c2.3,1,4.3,2.4,5.9,4.1c1.6,1.7,2.9,3.7,3.7,6
			c0.9,2.3,1.3,4.6,1.3,7.1c0,0.6,0,1.1-0.1,1.6c0,0.5-0.1,0.9-0.1,1.2h-29.3c0.1,1.6,0.5,3.1,1.2,4.4c0.6,1.3,1.4,2.4,2.5,3.4
			c1,1,2.1,1.7,3.4,2.2s2.6,0.8,4,0.8c1,0,2-0.1,3-0.4s1.9-0.6,2.8-1.1c0.8-0.5,1.6-1.1,2.2-1.8c0.7-0.7,1.2-1.5,1.5-2.3l6.6,1.9
			c-1.3,2.8-3.3,5-6.3,6.8C367.6,67.1,364.2,68,360.3,68z M371.4,46.2c-0.1-1.5-0.5-3-1.2-4.3c-0.6-1.3-1.4-2.4-2.4-3.3
			c-1-0.9-2.1-1.6-3.4-2.1s-2.7-0.8-4.1-0.8s-2.8,0.3-4.1,0.8c-1.3,0.5-2.4,1.2-3.4,2.1c-1,0.9-1.8,2-2.4,3.3s-1,2.7-1.1,4.3H371.4z
			"/>
	</g>
	<g>
		<polygon class="st1" points="74.2,26.6 74.2,24.6 74,24.6 		"/>
		<g>
			<path class="st1" d="M55.8,29.9c-3.4-2.8-8.5-3.4-12.1-3.4c-0.8,0-1.6,0-2.4,0.1v43.5c0.7-0.2,1.4-0.3,2.1-0.3h26.7
				c1.1,0,2.1-0.9,2.1-2.1V33.5c-1.2,0.1-2.4,0.2-3.5,0.2C64.9,33.7,59.7,33.1,55.8,29.9z"/>
			<path class="st1" d="M33.1,14.8H6.4c-1.1,0-2.1,0.9-2.1,2.1v50.9c0,1.1,0.9,2.1,2.1,2.1h26.7c0.7,0,1.4,0.1,2.1,0.3V16.8
				C35.2,15.7,34.3,14.8,33.1,14.8z"/>
		</g>
		<path d="M73.9,18.7v12.8v36.3c0,2.1-1.7,3.8-3.8,3.8H43.3c-1.4,0-2.7,0.5-3.8,1.4V25v-8.1c0-2.1,1.7-3.8,3.8-3.8h25v-2.5h-25
			c-2.1,0-3.9,1-5.1,2.6c-1.2-1.6-3-2.6-5.1-2.6H6.4C2.9,10.6,0,13.5,0,17v50.9c0,3.5,2.9,6.4,6.4,6.4h26.7c2.2,0,3.8,2.1,3.8,3.8
			c0,0.7,0.6,1.3,1.3,1.3c0.7,0,1.3-0.6,1.3-1.3c0-1.8,1.7-3.8,3.8-3.8H70c3.5,0,6.4-2.9,6.4-6.4V18.7H73.9z M37,72.9
			c-1.1-0.8-2.4-1.4-3.8-1.4H6.4c-2.1,0-3.8-1.7-3.8-3.8V16.8c0-2.1,1.7-3.8,3.8-3.8h26.7c2.1,0,3.8,1.7,3.8,3.8L37,72.9L37,72.9z"
			/>
		<polygon points="59.8,29.2 57.8,27.2 85,0 98.5,0 98.5,2.8 86.2,2.8 		"/>
		<path class="st1" d="M59.6,21.1c0,1.1-2,3.4-2,3.4s-2-2.3-2-3.4c0-1.1,0.9-2,2-2S59.6,20,59.6,21.1z"/>
		<path class="st1" d="M64.1,30.8c-0.7,0-2.2-1.3-2.2-1.3s1.5-1.3,2.2-1.3c0.7,0,1.3,0.6,1.3,1.3C65.4,30.3,64.9,30.8,64.1,30.8z"/>
		<path class="st1" d="M71.2,27.7c-1.2,0.4-4.4-0.9-4.4-0.9s1.7-3,2.9-3.4c1.2-0.4,2.5,0.2,2.9,1.4S72.4,27.3,71.2,27.7z"/>
	</g>
</g>
</svg>
