<svg width="137.29999923706055" height="98.69999313354492" xmlns="http://www.w3.org/2000/svg">
 <style type="text/css">.st0{
    fill:#0085AC;
    animation: fade 2s linear infinite;
  }
  @keyframes fade {
    0% {fill: #0085AC;}
    25% {fill: transparent;}
    75% {fill: #0085AC;}
  }</style>

 <g>
  <title>background</title>
  <rect fill="none" id="canvas_background" height="402" width="582" y="-1" x="-1"/>
 </g>
 <g>
  <title>Layer 1</title>
  <g id="svg_1">
   <polygon id="svg_2" points="104.43346148729324,36.25 104.43346148729324,34.25 104.23346453905106,34.25 " class="st0"/>
   <g id="svg_3">
    <path id="svg_4" d="m86.033332,39.55c-3.4,-2.8 -8.5,-3.4 -12.1,-3.4c-0.8,0 -1.6,0 -2.4,0.1l0,43.5c0.7,-0.2 1.4,-0.3 2.1,-0.3l26.7,0c1.1,0 2.1,-0.9 2.1,-2.1l0,-34.2c-1.2,0.1 -2.4,0.2 -3.5,0.2c-3.8,0 -9,-0.6 -12.9,-3.8z" class="st0"/>
    <path id="svg_5" d="m63.333332,24.45l-26.7,0c-1.1,0 -2.1,0.9 -2.1,2.1l0,50.9c0,1.1 0.9,2.1 2.1,2.1l26.7,0c0.7,0 1.4,0.1 2.1,0.3l0,-53.4c0,-1.1 -0.9,-2 -2.1,-2z" class="st0"/>
   </g>
   <path id="svg_6" d="m104.133332,28.35l0,12.8l0,36.3c0,2.1 -1.7,3.8 -3.8,3.8l-26.8,0c-1.4,0 -2.7,0.5 -3.8,1.4l0,-48l0,-8.1c0,-2.1 1.7,-3.8 3.8,-3.8l25,0l0,-2.5l-25,0c-2.1,0 -3.9,1 -5.1,2.6c-1.2,-1.6 -3,-2.6 -5.1,-2.6l-26.7,0c-3.5,0 -6.4,2.9 -6.4,6.4l0,50.9c0,3.5 2.9,6.4 6.4,6.4l26.7,0c2.2,0 3.8,2.1 3.8,3.8c0,0.7 0.6,1.3 1.3,1.3c0.7,0 1.3,-0.6 1.3,-1.3c0,-1.8 1.7,-3.8 3.8,-3.8l26.7,0c3.5,0 6.4,-2.9 6.4,-6.4l0,-49.2l-2.5,0zm-36.9,54.2c-1.1,-0.8 -2.4,-1.4 -3.8,-1.4l-26.8,0c-2.1,0 -3.8,-1.7 -3.8,-3.8l0,-50.9c0,-2.1 1.7,-3.8 3.8,-3.8l26.7,0c2.1,0 3.8,1.7 3.8,3.8l0.1,56.1l0,0z"/>
   <polygon id="svg_7" points="90.03345996141434,38.849998474121094 88.03345996141434,36.849998474121094 115.23346453905106,9.649999618530273 128.733449280262,9.649999618530273 128.733449280262,12.450000762939453 116.43346148729324,12.450000762939453 "/>
   <path id="svg_8" d="m89.833332,30.75c0,1.1 -2,3.4 -2,3.4s-2,-2.3 -2,-3.4c0,-1.1 0.9,-2 2,-2s2,0.9 2,2z" class="st0"/>
   <path id="svg_9" d="m94.333332,40.45c-0.7,0 -2.2,-1.3 -2.2,-1.3s1.5,-1.3 2.2,-1.3s1.3,0.6 1.3,1.3c0,0.8 -0.5,1.3 -1.3,1.3z" class="st0"/>
   <path id="svg_10" d="m101.433332,37.35c-1.2,0.4 -4.4,-0.9 -4.4,-0.9s1.7,-3 2.9,-3.4s2.5,0.2 2.9,1.4s-0.2,2.5 -1.4,2.9z" class="st0"/>
  </g>
 </g>
</svg>