<?xml version="1.0" standalone="no"?>
<!DOCTYPE svg PUBLIC "-//W3C//DTD SVG 20010904//EN"
 "http://www.w3.org/TR/2001/REC-SVG-20010904/DTD/svg10.dtd">
<svg version="1.0" xmlns="http://www.w3.org/2000/svg"
 width="670.000000pt" height="670.000000pt" viewBox="0 0 670.000000 670.000000"
 preserveAspectRatio="xMidYMid meet">
<metadata>
Created by potrace 1.11, written by Peter Selinger 2001-2013
</metadata>
<g transform="translate(0.000000,670.000000) scale(0.100000,-0.100000)"
fill="#000000" stroke="none">
<path d="M505 6344 c-11 -2 -45 -9 -75 -15 -193 -39 -378 -228 -419 -427 -8
-38 -11 -718 -11 -2335 0 -2533 -5 -2332 67 -2470 65 -123 179 -218 328 -273
47 -18 115 -19 1310 -24 l1260 -5 63 -34 c101 -55 166 -151 183 -268 14 -98
47 -133 125 -133 57 0 99 49 108 125 15 121 93 233 201 285 l50 25 1260 5
1260 5 62 23 c167 62 300 198 356 361 l22 66 3 2193 2 2192 -110 0 -110 0 -2
-2177 -3 -2178 -28 -56 c-32 -66 -99 -132 -165 -162 l-47 -22 -1260 -5 c-1016
-4 -1268 -8 -1300 -19 -44 -15 -137 -62 -172 -87 l-23 -16 0 2433 c0 1514 4
2456 10 2493 18 113 88 205 190 250 l58 26 1124 3 1123 2 0 110 0 110 -1130 0
-1130 0 -70 -22 c-84 -27 -178 -85 -240 -149 l-45 -47 -62 60 c-72 68 -126
102 -218 135 l-65 23 -1230 1 c-676 1 -1239 0 -1250 -2z m2527 -245 c58 -30
111 -81 144 -141 l29 -53 5 -2483 c3 -1365 4 -2482 2 -2482 -1 0 -26 13 -55
30 -29 16 -80 40 -113 52 l-59 23 -835 2 c-459 2 -1026 4 -1260 6 l-425 2 -50
25 c-63 31 -117 85 -152 152 l-28 53 0 2305 0 2305 24 50 c32 63 99 131 159
158 l47 22 1215 5 c668 3 1237 1 1264 -3 28 -5 67 -17 88 -28z"/>
<path d="M507 5970 c-43 -13 -92 -55 -111 -93 -15 -32 -16 -221 -16 -2297 l0
-2262 22 -40 c12 -21 38 -49 58 -61 l35 -22 1250 -5 c911 -4 1259 -9 1283 -17
l32 -12 0 2340 c0 1964 -2 2345 -14 2372 -19 44 -64 83 -111 96 -48 13 -2384
14 -2428 1z"/>
<path d="M5655 5520 l-620 -620 88 -87 87 -88 583 583 582 582 148 0 147 0 0
30 c1 17 1 68 1 115 0 47 0 90 -1 95 0 6 -73 10 -198 10 l-197 0 -620 -620z"/>
<path d="M4950 5589 c-54 -22 -100 -92 -100 -152 0 -44 56 -154 119 -235 l49
-63 35 43 c51 63 114 164 128 205 23 71 -17 165 -84 196 -39 19 -108 21 -147
6z"/>
<path d="M6083 5233 c-38 -7 -130 -100 -193 -195 -33 -49 -60 -93 -60 -98 0
-14 185 -70 270 -82 68 -10 79 -9 121 9 105 47 143 170 86 280 -36 69 -129
104 -224 86z"/>
<path d="M3628 4954 l-28 -5 0 -1890 c0 -1796 1 -1890 18 -1885 70 22 252 26
1350 26 1007 0 1197 2 1220 14 36 19 78 65 91 99 8 20 11 494 11 1533 l0 1505
-77 -8 c-113 -12 -423 -8 -533 6 -334 42 -585 137 -810 307 -211 160 -431 244
-740 284 -91 12 -457 22 -502 14z"/>
<path d="M5542 4799 c-29 -11 -142 -90 -142 -98 1 -9 80 -66 125 -90 54 -28
96 -27 134 5 96 81 1 231 -117 183z"/>
</g>
</svg>
